<svg xmlns="http://www.w3.org/2000/svg" width="212.98" height="35" viewBox="0 0 212.98 35"><rect class="svg__rect" x="0" y="0" width="117.03" height="35" fill="#AC0B0B"/><rect class="svg__rect" x="115.03" y="0" width="97.94999999999999" height="35" fill="#000000"/><path class="svg__text" d="M17.33 22L14.22 22L14.22 13.47L17.14 13.47Q18.59 13.47 19.34 14.05Q20.10 14.63 20.10 15.78L20.10 15.78Q20.10 16.36 19.78 16.83Q19.47 17.30 18.86 17.56L18.86 17.56Q19.55 17.75 19.93 18.26Q20.31 18.78 20.31 19.51L20.31 19.51Q20.31 20.71 19.53 21.36Q18.76 22 17.33 22L17.33 22ZM15.70 18.15L15.70 20.82L17.35 20.82Q18.04 20.82 18.44 20.47Q18.83 20.13 18.83 19.51L18.83 19.51Q18.83 18.18 17.47 18.15L17.47 18.15L15.70 18.15ZM15.70 14.66L15.70 17.06L17.15 17.06Q17.84 17.06 18.23 16.75Q18.62 16.43 18.62 15.86L18.62 15.86Q18.62 15.23 18.26 14.95Q17.90 14.66 17.14 14.66L17.14 14.66L15.70 14.66ZM24.64 19.16L24.64 19.16L24.64 13.47L26.12 13.47L26.12 19.18Q26.12 20.03 26.55 20.48Q26.98 20.93 27.83 20.93L27.83 20.93Q29.54 20.93 29.54 19.13L29.54 19.13L29.54 13.47L31.02 13.47L31.02 19.17Q31.02 20.53 30.15 21.32Q29.28 22.12 27.83 22.12L27.83 22.12Q26.36 22.12 25.50 21.33Q24.64 20.55 24.64 19.16ZM37.15 22L35.67 22L35.67 13.47L37.15 13.47L37.15 22ZM47.32 22L41.96 22L41.96 13.47L43.44 13.47L43.44 20.82L47.32 20.82L47.32 22ZM53.12 14.66L50.49 14.66L50.49 13.47L57.25 13.47L57.25 14.66L54.59 14.66L54.59 22L53.12 22L53.12 14.66ZM68.37 22L66.40 13.47L67.87 13.47L69.20 19.88L70.82 13.47L72.07 13.47L73.68 19.89L74.99 13.47L76.46 13.47L74.49 22L73.07 22L71.45 15.77L69.79 22L68.37 22ZM82.10 22L80.62 22L80.62 13.47L82.10 13.47L82.10 22ZM88.59 14.66L85.95 14.66L85.95 13.47L92.72 13.47L92.72 14.66L90.06 14.66L90.06 22L88.59 22L88.59 14.66ZM97.96 22L96.48 22L96.48 13.47L97.96 13.47L97.96 17.02L101.77 17.02L101.77 13.47L103.25 13.47L103.25 22L101.77 22L101.77 18.21L97.96 18.21L97.96 22Z" fill="#FFFFFF"/><path class="svg__text" d="M131.55 22L129.22 22L129.22 13.60L131.17 13.60L134.88 18.07L134.88 13.60L137.21 13.60L137.21 22L135.26 22L131.55 17.52L131.55 22ZM149.12 22L142.37 22L142.37 13.60L148.96 13.60L148.96 15.44L144.73 15.44L144.73 16.85L148.46 16.85L148.46 18.63L144.73 18.63L144.73 20.17L149.12 20.17L149.12 22ZM155.77 22L153.06 22L156.12 17.75L153.19 13.60L155.87 13.60L157.55 16.02L159.20 13.60L161.77 13.60L158.84 17.66L161.97 22L159.23 22L157.49 19.40L155.77 22ZM168.04 15.48L165.46 15.48L165.46 13.60L172.98 13.60L172.98 15.48L170.42 15.48L170.42 22L168.04 22L168.04 15.48ZM183.25 20.93L183.25 20.93L184.54 19.40Q185.21 20.27 185.98 20.27L185.98 20.27Q185.99 20.27 186.00 20.27L186.00 20.27Q186.51 20.27 186.78 19.96Q187.05 19.65 187.05 19.05L187.05 19.05L187.05 15.44L184.15 15.44L184.15 13.60L189.41 13.60L189.41 18.91Q189.41 20.54 188.58 21.36Q187.76 22.17 186.17 22.17L186.17 22.17Q185.24 22.17 184.48 21.85Q183.73 21.53 183.25 20.93ZM193.91 21.24L193.91 21.24L194.68 19.49Q195.25 19.86 195.99 20.09Q196.74 20.32 197.46 20.32L197.46 20.32Q198.82 20.32 198.83 19.64L198.83 19.64Q198.83 19.28 198.44 19.11Q198.05 18.93 197.18 18.74L197.18 18.74Q196.23 18.53 195.60 18.30Q194.96 18.06 194.51 17.55Q194.05 17.03 194.05 16.16L194.05 16.16Q194.05 15.39 194.47 14.77Q194.89 14.15 195.72 13.79Q196.56 13.43 197.77 13.43L197.77 13.43Q198.59 13.43 199.40 13.62Q200.20 13.80 200.82 14.17L200.82 14.17L200.09 15.93Q198.89 15.28 197.75 15.28L197.75 15.28Q197.05 15.28 196.72 15.49Q196.40 15.70 196.40 16.04L196.40 16.04Q196.40 16.37 196.79 16.54Q197.17 16.71 198.02 16.89L198.02 16.89Q198.98 17.10 199.61 17.33Q200.24 17.56 200.70 18.07Q201.17 18.58 201.17 19.46L201.17 19.46Q201.17 20.21 200.75 20.83Q200.33 21.44 199.49 21.80Q198.65 22.17 197.44 22.17L197.44 22.17Q196.42 22.17 195.46 21.92Q194.50 21.67 193.91 21.24Z" fill="#FFFFFF" x="128.03"/></svg>