<svg xmlns="http://www.w3.org/2000/svg" width="218.94" height="35" viewBox="0 0 218.94 35"><rect class="svg__rect" x="0" y="0" width="127.25" height="35" fill="#C1D72F"/><rect class="svg__rect" x="125.25" y="0" width="93.69" height="35" fill="#419B5A"/><path class="svg__text" d="M15.70 22L14.22 22L14.22 13.47L17.48 13.47Q18.91 13.47 19.75 14.21Q20.59 14.96 20.59 16.18L20.59 16.18Q20.59 17.44 19.77 18.13Q18.95 18.83 17.46 18.83L17.46 18.83L15.70 18.83L15.70 22ZM15.70 14.66L15.70 17.64L17.48 17.64Q18.27 17.64 18.69 17.27Q19.10 16.90 19.10 16.19L19.10 16.19Q19.10 15.50 18.68 15.09Q18.26 14.68 17.52 14.66L17.52 14.66L15.70 14.66ZM24.61 18.00L24.61 18.00L24.61 17.52Q24.61 16.28 25.05 15.32Q25.49 14.37 26.30 13.86Q27.10 13.35 28.14 13.35Q29.19 13.35 29.99 13.85Q30.80 14.35 31.24 15.29Q31.68 16.23 31.68 17.48L31.68 17.48L31.68 17.96Q31.68 19.21 31.25 20.16Q30.82 21.10 30.01 21.61Q29.21 22.12 28.16 22.12L28.16 22.12Q27.12 22.12 26.31 21.61Q25.50 21.10 25.05 20.17Q24.61 19.23 24.61 18.00ZM26.09 17.46L26.09 17.96Q26.09 19.36 26.64 20.13Q27.18 20.90 28.16 20.90L28.16 20.90Q29.14 20.90 29.67 20.15Q30.20 19.40 30.20 17.96L30.20 17.96L30.20 17.51Q30.20 16.09 29.67 15.34Q29.13 14.58 28.14 14.58L28.14 14.58Q27.18 14.58 26.64 15.33Q26.10 16.09 26.09 17.46L26.09 17.46ZM37.53 22L35.56 13.47L37.03 13.47L38.36 19.88L39.99 13.47L41.23 13.47L42.84 19.89L44.15 13.47L45.62 13.47L43.65 22L42.24 22L40.61 15.77L38.96 22L37.53 22ZM55.27 22L49.70 22L49.70 13.47L55.23 13.47L55.23 14.66L51.18 14.66L51.18 17.02L54.68 17.02L54.68 18.19L51.18 18.19L51.18 20.82L55.27 20.82L55.27 22ZM60.95 22L59.47 22L59.47 13.47L62.47 13.47Q63.95 13.47 64.75 14.13Q65.55 14.79 65.55 16.05L65.55 16.05Q65.55 16.90 65.14 17.48Q64.72 18.06 63.99 18.37L63.99 18.37L65.90 21.92L65.90 22L64.31 22L62.60 18.71L60.95 18.71L60.95 22ZM60.95 14.66L60.95 17.52L62.48 17.52Q63.23 17.52 63.65 17.15Q64.07 16.77 64.07 16.11L64.07 16.11Q64.07 15.43 63.68 15.05Q63.29 14.68 62.52 14.66L62.52 14.66L60.95 14.66ZM75.52 22L69.95 22L69.95 13.47L75.48 13.47L75.48 14.66L71.43 14.66L71.43 17.02L74.93 17.02L74.93 18.19L71.43 18.19L71.43 20.82L75.52 20.82L75.52 22ZM82.17 22L79.72 22L79.72 13.47L82.24 13.47Q83.37 13.47 84.25 13.97Q85.12 14.48 85.60 15.40Q86.08 16.33 86.08 17.52L86.08 17.52L86.08 17.95Q86.08 19.16 85.60 20.08Q85.12 21.00 84.22 21.50Q83.33 22 82.17 22L82.17 22ZM81.20 14.66L81.20 20.82L82.17 20.82Q83.33 20.82 83.96 20.09Q84.58 19.36 84.59 17.99L84.59 17.99L84.59 17.52Q84.59 16.13 83.99 15.40Q83.39 14.66 82.24 14.66L82.24 14.66L81.20 14.66ZM99.64 22L96.52 22L96.52 13.47L99.45 13.47Q100.89 13.47 101.65 14.05Q102.41 14.63 102.41 15.78L102.41 15.78Q102.41 16.36 102.09 16.83Q101.77 17.30 101.16 17.56L101.16 17.56Q101.86 17.75 102.23 18.26Q102.61 18.78 102.61 19.51L102.61 19.51Q102.61 20.71 101.84 21.36Q101.07 22 99.64 22L99.64 22ZM98.01 18.15L98.01 20.82L99.65 20.82Q100.35 20.82 100.74 20.47Q101.14 20.13 101.14 19.51L101.14 19.51Q101.14 18.18 99.78 18.15L99.78 18.15L98.01 18.15ZM98.01 14.66L98.01 17.06L99.46 17.06Q100.15 17.06 100.54 16.75Q100.93 16.43 100.93 15.86L100.93 15.86Q100.93 15.23 100.57 14.95Q100.21 14.66 99.45 14.66L99.45 14.66L98.01 14.66ZM109.12 18.86L106.26 13.47L107.90 13.47L109.87 17.51L111.83 13.47L113.47 13.47L110.61 18.86L110.61 22L109.12 22L109.12 18.86Z" fill="#FFFFFF"/><path class="svg__text" d="M140.86 22L138.43 22L142.14 13.60L144.48 13.60L148.20 22L145.73 22L145.07 20.37L141.52 20.37L140.86 22ZM143.29 15.93L142.21 18.61L144.37 18.61L143.29 15.93ZM154.73 22L152.35 22L152.35 13.60L154.73 13.60L154.73 22ZM162.28 22L159.90 22L159.90 13.60L163.75 13.60Q164.89 13.60 165.73 13.98Q166.57 14.35 167.02 15.06Q167.48 15.76 167.48 16.71L167.48 16.71Q167.48 17.62 167.05 18.30Q166.63 18.98 165.83 19.36L165.83 19.36L167.64 22L165.10 22L163.58 19.77L162.28 19.77L162.28 22ZM162.28 15.47L162.28 17.93L163.60 17.93Q164.33 17.93 164.71 17.61Q165.08 17.29 165.08 16.71L165.08 16.71Q165.08 16.12 164.71 15.79Q164.33 15.47 163.60 15.47L163.60 15.47L162.28 15.47ZM176.81 22L172.27 22L172.27 13.60L176.57 13.60Q178.17 13.60 179.02 14.19Q179.86 14.79 179.86 15.79L179.86 15.79Q179.86 16.39 179.56 16.87Q179.26 17.34 178.72 17.62L178.72 17.62Q179.45 17.87 179.85 18.41Q180.26 18.94 180.26 19.70L180.26 19.70Q180.26 20.80 179.37 21.40Q178.48 22 176.81 22L176.81 22ZM174.62 18.58L174.62 20.28L176.62 20.28Q177.86 20.28 177.86 19.43L177.86 19.43Q177.86 18.58 176.62 18.58L176.62 18.58L174.62 18.58ZM174.62 15.31L174.62 16.94L176.25 16.94Q177.45 16.94 177.45 16.12L177.45 16.12Q177.45 15.31 176.25 15.31L176.25 15.31L174.62 15.31ZM187.31 22L184.98 22L184.98 13.60L186.93 13.60L190.64 18.07L190.64 13.60L192.97 13.60L192.97 22L191.02 22L187.31 17.52L187.31 22ZM202.67 22L198.13 22L198.13 13.60L202.43 13.60Q204.04 13.60 204.88 14.19Q205.72 14.79 205.72 15.79L205.72 15.79Q205.72 16.39 205.42 16.87Q205.13 17.34 204.59 17.62L204.59 17.62Q205.31 17.87 205.72 18.41Q206.12 18.94 206.12 19.70L206.12 19.70Q206.12 20.80 205.24 21.40Q204.35 22 202.67 22L202.67 22ZM200.49 18.58L200.49 20.28L202.48 20.28Q203.73 20.28 203.73 19.43L203.73 19.43Q203.73 18.58 202.48 18.58L202.48 18.58L200.49 18.58ZM200.49 15.31L200.49 16.94L202.12 16.94Q203.32 16.94 203.32 16.12L203.32 16.12Q203.32 15.31 202.12 15.31L202.12 15.31L200.49 15.31Z" fill="#FFFFFF" x="138.25"/></svg>